<?xml version="1.0" encoding="UTF-8" standalone="no"?>
<svg
   xmlns:dc="http://purl.org/dc/elements/1.1/"
   xmlns:cc="http://creativecommons.org/ns#"
   xmlns:rdf="http://www.w3.org/1999/02/22-rdf-syntax-ns#"
   xmlns:svg="http://www.w3.org/2000/svg"
   xmlns="http://www.w3.org/2000/svg"
   xmlns:sodipodi="http://sodipodi.sourceforge.net/DTD/sodipodi-0.dtd"
   xmlns:inkscape="http://www.inkscape.org/namespaces/inkscape"
   width="48"
   height="48"
   class="bi bi-cloud-arrow-down-fill"
   viewBox="0 0 48 48"
   version="1.1"
   id="svg4"
   sodipodi:docname="downloading.svg"
   style="fill:currentColor"
   inkscape:version="0.92.5 (2060ec1f9f, 2020-04-08)">
  <metadata
     id="metadata10">
    <rdf:RDF>
      <cc:Work
         rdf:about="">
        <dc:format>image/svg+xml</dc:format>
        <dc:type
           rdf:resource="http://purl.org/dc/dcmitype/StillImage" />
        <dc:title></dc:title>
      </cc:Work>
    </rdf:RDF>
  </metadata>
  <defs
     id="defs8" />
  <sodipodi:namedview
     pagecolor="#505050"
     bordercolor="#ffffff"
     borderopacity="1"
     objecttolerance="10"
     gridtolerance="10"
     guidetolerance="10"
     inkscape:pageopacity="0"
     inkscape:pageshadow="2"
     inkscape:window-width="1366"
     inkscape:window-height="706"
     id="namedview6"
     showgrid="false"
     inkscape:snap-bbox="true"
     inkscape:bbox-paths="true"
     inkscape:bbox-nodes="true"
     inkscape:snap-bbox-edge-midpoints="true"
     inkscape:snap-bbox-midpoints="true"
     inkscape:snap-to-guides="false"
     inkscape:snap-page="true"
     inkscape:zoom="5.2149125"
     inkscape:cx="13.027104"
     inkscape:cy="9.6784407"
     inkscape:window-x="0"
     inkscape:window-y="32"
     inkscape:window-maximized="1"
     inkscape:current-layer="svg4" />
  <path
     d="M 23.988225,8.7958366 A 15.405165,15.405165 0 0 0 13.97626,12.534306 c -2.13388,1.838591 -3.679968,4.234331 -4.0783288,6.638428 -4.6689058,1.030725 -8.195658,5.097912 -8.195658,10.009179 0,5.705204 4.7580511,10.25711 10.5328968,10.25711 h 24.809838 c 5.056125,0 9.22917,-3.983614 9.22917,-8.989597 0,-4.557477 -3.459894,-8.270874 -7.894799,-8.897667 C 37.702443,14.364539 31.481876,8.7958366 23.988225,8.7958366 Z m 6.557641,19.0934914 -5.571488,5.571488 a 1.3928721,1.3928721 0 0 1 -1.972307,0 l -5.571488,-5.571488 a 1.3946317,1.3946317 0 1 1 1.972307,-1.972307 l 3.192462,3.195248 V 18.545941 a 1.3928725,1.3928725 0 0 1 2.785745,0 v 10.566328 l 3.192463,-3.195248 a 1.3946316,1.3946316 0 0 1 1.972306,1.972307 z"
     id="path2"
     inkscape:connector-curvature="0"
     style="fill:#ffffff;fill-opacity:1;stroke-width:0.99999994" />
</svg>
